# xmcd
#
# Track frame offsets: 
#        150
#        21132
#        38137
#        54545
#        73856
#        88519
#        106429
#        116050
#        130850
#        145339
#        155923
#
# Disc length: 2255 seconds
#
# Revision: 1
# Processed by: cddbd v1.5.2PL0 Copyright (c) Steve Scherf et al.
# Submitted via: ExactAudioCopyFreeDBPlugin 1.0
#
DISCID=9e08cd0b
DTITLE=Beirut - Gulag Orkestar - The Lon Gisland EP [Disc 1]
DYEAR=2006
DGENRE=Indie
TTITLE0=The Gulag Orkestar
TTITLE1=Prenzlauerberg
TTITLE2=Brandenburg
TTITLE3=Postcards From Italy
TTITLE4=Mount Wroclai (Idle Days)
TTITLE5=Rhineland (Heartland)
TTITLE6=Scenic World
TTITLE7=Bratislava
TTITLE8=The Bunker
TTITLE9=The Canals Of Our City
TTITLE10=After The Curtain
EXTD=
EXTT0=
EXTT1=
EXTT2=
EXTT3=
EXTT4=
EXTT5=
EXTT6=
EXTT7=
EXTT8=
EXTT9=
EXTT10=
PLAYORDER=
